<svg width="14" height="14" viewBox="0 0 14 14" fill="none" xmlns="http://www.w3.org/2000/svg" icon="Import" color="#2468ea"><path fill-rule="evenodd" clip-rule="evenodd" d="M10.261 7.877C10.5519 7.62242 10.5814 7.18019 10.3268 6.88924C10.0722 6.5983 9.62999 6.56881 9.33905 6.82339L7.7 8.25756V1.4002C7.7 1.0136 7.3866 0.700195 7 0.700195C6.6134 0.700195 6.3 1.0136 6.3 1.4002V8.25756L4.66095 6.82339C4.37001 6.56881 3.92777 6.5983 3.6732 6.88924C3.41862 7.18019 3.4481 7.62242 3.73905 7.877L6.53905 10.327C6.80296 10.5579 7.19704 10.5579 7.46095 10.327L10.261 7.877ZM1.4 9.8002C1.4 9.4136 1.0866 9.1002 0.7 9.1002C0.313401 9.1002 0 9.4136 0 9.8002V11.9002C0 12.6734 0.626801 13.3002 1.4 13.3002H12.6C13.3732 13.3002 14 12.6734 14 11.9002V9.8002C14 9.4136 13.6866 9.1002 13.3 9.1002C12.9134 9.1002 12.6 9.4136 12.6 9.8002V11.9002H1.4V9.8002Z" fill="currentColor"></path></svg>