<svg width="14" height="14" viewBox="0 0 14 14" fill="none" xmlns="http://www.w3.org/2000/svg" icon="Import" color="#2468ea"><path fill-rule="evenodd" clip-rule="evenodd" d="M3.07426 7.1995C3.35068 6.92922 3.79387 6.9342 4.06414 7.21062C4.33442 7.48704 4.32944 7.93023 4.05302 8.20051L2.41717 9.8L13.3 9.8C13.6866 9.8 14 10.1134 14 10.5C14 10.8866 13.6866 11.2 13.3 11.2L2.41717 11.2L4.05302 12.7995C4.32944 13.0698 4.33442 13.513 4.06414 13.7894C3.79387 14.0658 3.35068 14.0708 3.07426 13.8005L0.210618 11.0005C0.0759259 10.8688 3.94907e-08 10.6884 4.17371e-08 10.5C4.39835e-08 10.3116 0.0759259 10.1312 0.210618 9.9995L3.07426 7.1995ZM10.9257 0.199496C10.6493 -0.0707827 10.2061 -0.0658026 9.93586 0.210618C9.66558 0.48704 9.67056 0.930227 9.94698 1.20051L11.5828 2.8L0.7 2.8C0.313401 2.8 1.29821e-07 3.1134 1.25211e-07 3.5C1.20601e-07 3.8866 0.313401 4.2 0.7 4.2L11.5828 4.2L9.94698 5.7995C9.67056 6.06977 9.66558 6.51296 9.93586 6.78938C10.2061 7.0658 10.6493 7.07078 10.9257 6.8005L13.7894 4.0005C13.9241 3.86881 14 3.68838 14 3.5C14 3.31162 13.9241 3.13119 13.7894 2.9995L10.9257 0.199496Z" fill="currentColor"></path></svg>